<?xml version="1.0" encoding="UTF-8"?>
<!-- Generated by Pixelmator Pro 3.5.3 -->
<svg width="1280" height="640" viewBox="0 0 1280 640" xmlns="http://www.w3.org/2000/svg">
    <g id="Group">
        <path id="parameter" fill="#0064ff" stroke="none" d="M 345.216064 560 C 342.50354 560 340.176788 559.999207 337.65802 559.80542 C 315.376709 557.674194 300.846588 546.438843 301.23407 526.67627 C 301.23407 519.89502 303.750061 515.0495 309.756348 515.0495 L 309.950928 515.0495 C 313.632172 515.0495 316.928772 518.34259 316.735016 522.023804 C 316.735016 523.961365 315.762146 527.642578 315.762146 530.161255 C 315.762146 543.142578 323.125092 552.637756 337.26886 554.962769 C 339.593872 555.156494 341.922516 555.351868 344.247528 555.351868 C 411.672699 555.351868 413.219513 444.136169 463.788422 404.80481 C 466.113434 403.254791 468.247498 401.512878 470.57251 400.156677 L 472.120453 402.09375 C 470.570435 403.449951 469.795258 404.999176 469.020264 405.967926 C 458.170227 421.661682 451.585205 442.780182 446.160156 461.961487 L 444.99707 465.450836 C 471.347137 463.513367 493.432587 441.035645 493.432587 414.879333 C 493.432587 383.685608 468.440765 371.865875 437.828156 371.865875 C 424.459381 371.672119 411.28183 374.000763 398.494293 378.844543 C 371.562988 388.919556 345.600891 411.781982 345.600891 446.075745 C 345.600891 462.738312 353.160004 478.430969 371.76004 478.430969 C 388.228882 478.430969 397.526764 465.839172 396.75177 450.33905 C 396.364288 448.40155 397.72171 444.718079 403.146729 444.718079 C 409.540527 444.718079 409.347107 450.33905 409.347107 450.33905 C 409.347107 470.101654 392.875366 481.531158 371.950287 481.531158 C 354.900269 481.531158 343.277832 475.523987 336.884033 466.030212 C 332.815277 459.636505 330.489929 451.692474 330.683685 443.554962 C 330.683685 434.254944 332.621552 424.953979 336.884033 416.816406 C 351.996582 386.010071 393.262848 366.054657 438.212982 366.054657 C 480.256866 366.054657 515.52301 382.137939 515.52301 415.463043 C 515.52301 444.138123 488.008911 460.607483 464.177551 467.582489 C 457.590057 469.713806 450.61441 471.261047 443.639374 472.036011 C 430.076843 520.086182 397.722473 560 345.216064 560 Z M 480.763763 530.321228 C 477.664429 530.321228 475.00705 529.214355 473.235992 527.000549 C 471.464935 524.786743 470.581146 522.12677 470.581146 519.027405 C 470.581146 505.965942 478.106384 491.798492 493.160187 476.74469 C 500.908478 469.660492 507.772125 465.01062 513.970764 462.5755 C 522.825989 458.812012 531.018799 457.043701 538.988464 457.486328 C 546.736755 457.929138 550.718994 459.258301 550.718994 461.69342 C 549.169373 466.121033 543.416077 479.84668 533.453979 502.648743 L 529.91272 511.279114 C 529.469971 513.05011 529.468262 514.378479 530.35376 515.706665 C 531.239258 517.034912 532.788086 517.477722 535.001892 516.813599 C 537.437073 516.149475 541.86377 512.61084 548.505188 505.969421 L 567.988403 460.807037 L 583.484985 460.807037 L 580.384766 471.655518 C 586.80481 465.899719 591.675171 462.13269 594.774475 460.361694 C 597.873779 458.590668 600.31073 457.706848 602.081787 457.706848 C 604.738342 458.370972 606.064026 459.70108 606.064026 461.69342 C 606.064026 462.578979 604.073303 467.449402 600.088501 476.08313 C 598.981567 478.961182 599.203003 481.173218 601.195374 480.951782 C 603.187805 480.730438 608.94458 477.854279 609.830078 477.190033 L 609.609558 477.410522 C 610.052307 477.189209 610.270264 476.745605 610.491638 476.52417 C 618.239929 469.439972 625.103577 464.790222 631.302185 462.35498 C 640.15741 458.591492 648.350159 456.823181 656.319885 457.265808 C 664.068176 457.708618 668.050415 459.033447 668.050415 461.468567 C 666.500732 465.896179 660.747498 479.621765 650.7854 502.423889 L 647.244141 511.058594 C 646.801453 512.82959 646.799683 514.157959 647.685181 515.486206 C 648.570679 516.814575 650.119507 517.257202 652.333313 516.593079 C 654.547119 516.150269 658.975586 512.610046 665.395569 506.189941 L 685.319824 458.813751 L 703.030212 458.813751 C 701.48053 463.684143 700.371826 467.226166 700.150513 469.882751 C 703.471252 465.897949 707.458679 463.02002 711.664856 461.027557 C 715.871094 459.256531 720.299561 458.148834 724.727173 457.927368 C 729.154785 457.706055 732.475464 460.807983 734.68927 467.227905 L 735.13031 468.334839 C 743.542725 460.807983 752.399658 457.040985 761.254883 457.040985 C 767.010742 457.705078 769.885254 460.361694 769.885254 464.789307 C 769.885254 467.667206 764.352478 480.953583 752.840698 504.862549 L 749.2995 514.824646 C 748.85675 518.145325 749.74054 519.695007 751.954346 519.252258 C 753.282593 519.252258 757.487915 515.709412 764.350769 508.403748 C 765.014832 502.647919 766.5672 496.447571 769.223694 490.027466 C 772.322998 482.943298 776.749695 476.74469 782.72699 471.210175 C 788.704285 465.675659 794.680664 461.69342 800.657959 459.479614 C 806.856567 457.265808 811.728699 456.155396 815.713501 455.934082 C 824.125977 456.598206 828.554443 460.141174 828.775818 466.782593 C 827.447571 472.317078 824.789246 477.409729 820.361633 482.058655 C 816.155396 486.707703 811.06189 490.247986 805.30603 492.461792 C 799.550171 494.896912 792.690857 496.89032 784.499756 498.88269 C 782.72876 503.974396 782.063782 508.624268 782.50647 513.05188 C 782.727905 517.479492 783.832153 520.135254 785.381836 521.020691 C 786.931458 522.127563 789.591553 522.349854 793.35498 521.907043 C 796.897095 521.464294 809.736328 519.030884 830.10321 491.579712 C 833.202515 483.831421 837.187378 474.753143 842.279114 464.348267 L 833.864929 464.348267 L 833.864929 460.361694 L 844.49292 460.361694 L 857.555176 431.582275 L 874.820251 431.582275 L 863.089722 460.141174 L 874.820251 460.141174 L 873.272339 464.568787 L 860.430542 464.568787 L 842.279114 503.755615 C 840.729492 507.076355 839.843018 510.617554 839.178894 513.938232 C 838.514832 517.258972 839.622559 519.027405 842.279114 519.027405 C 847.592224 519.027405 854.675537 513.050964 863.530701 501.096497 C 864.41626 497.554443 865.522278 494.015015 867.07196 490.472839 C 870.171265 483.388794 874.597961 477.190033 880.575256 471.655518 C 886.55249 466.121033 892.533264 462.13446 898.510498 459.920654 C 904.709167 457.706848 909.576843 456.600891 913.561768 456.379456 C 921.974182 457.043701 926.402649 460.586548 926.624023 467.227905 C 925.295715 472.762451 922.637451 477.850769 918.209839 482.499695 C 914.003601 487.148621 908.91449 490.693359 903.15863 492.907166 C 897.40271 495.342407 890.539124 497.335693 882.348022 499.328033 C 880.577026 504.419861 879.911926 509.065308 880.354736 513.49292 C 880.576111 517.920471 881.684814 520.580566 883.234436 521.466064 C 884.784119 522.572937 887.439758 522.790894 891.203247 522.348083 C 894.523926 522.12677 913.120728 513.715088 925.296631 495.561981 L 939.68634 462.13446 L 955.182922 462.13446 L 952.082764 472.982941 C 958.502747 467.227112 963.373108 463.464569 966.472473 461.69342 C 969.571777 459.922424 972.008728 459.034271 973.779724 459.034271 C 976.436279 459.698364 977.761963 461.028503 977.761963 463.020844 C 977.761963 463.906433 975.771301 468.776794 971.786438 477.410522 C 970.45813 480.288574 970.90094 482.057861 972.893311 482.279175 C 974.000244 482.057861 975.108032 481.615875 975.99353 480.951782 L 977.320923 480.951782 C 977.763733 480.951782 978.206421 481.396301 978.427856 480.510742 L 978.427856 481.392792 C 978.206421 484.713501 976.211426 487.5914 972.447998 490.247986 C 968.684509 492.683105 964.479187 493.349915 960.051575 491.800232 C 955.623962 490.250702 953.410156 485.599854 953.410156 477.851563 C 949.203979 479.401245 944.778076 486.706787 939.68634 499.989563 L 927.730957 529.655396 L 909.354675 529.655396 L 917.98938 509.510651 C 910.019653 518.808655 898.065125 530.762268 880.354736 529.655396 C 874.156067 529.434021 869.285767 527.883545 865.965027 524.34137 C 862.865723 520.799377 861.31604 516.150269 861.537415 509.95166 C 859.323669 513.493835 856.226074 517.256409 852.241211 521.241211 C 846.928101 526.332886 841.39447 528.989502 835.417175 528.989502 C 828.554443 529.210815 824.568726 525.890137 823.461792 519.027405 C 823.019104 515.485352 823.460938 510.839844 824.789246 504.862549 C 821.689941 509.290131 805.530029 531.205078 782.50647 529.655396 C 776.307861 529.212585 771.4375 527.883545 768.116821 524.34137 C 765.903015 521.90625 764.573792 518.808655 763.909729 515.045166 C 756.8255 522.572144 751.071472 526.999756 746.865173 528.327942 C 742.658997 529.656311 738.671509 530.099121 735.35083 529.434875 C 732.03009 528.770752 729.81897 526.115112 729.154785 521.466064 C 728.269287 516.817139 734.90802 500.212708 748.633606 471.876038 L 749.078979 469.216888 C 748.63623 467.224426 747.970337 466.121033 747.306213 466.121033 L 746.865173 466.121033 C 742.437561 466.342468 736.902222 472.097504 730.482178 482.945038 C 724.062195 493.792664 719.634583 502.425659 717.199402 508.624268 C 714.764221 514.822876 712.107666 521.463501 709.451111 528.768982 L 689.747375 528.768982 C 700.816406 503.753052 707.457825 488.477783 709.67157 483.386078 C 711.885376 478.294373 712.99231 474.30957 712.99231 471.210175 C 712.99231 469.660492 712.550415 468.776794 711.664856 468.555359 L 710.337463 468.555359 C 704.581665 468.334015 692.623535 488.480499 674.691833 529.214355 L 655.212952 529.434875 L 660.302124 517.258972 C 658.752441 518.58728 656.981445 520.137024 654.767639 521.686523 C 647.462036 527.221069 641.485718 529.875854 636.836731 529.875854 C 629.973877 529.875854 626.433594 525.448303 626.433594 516.593079 C 616.471497 525.669678 607.395752 530.321228 599.647461 530.321228 L 597.874695 530.321228 C 594.775391 530.321228 592.11792 529.214355 590.346863 527.000549 C 588.575867 524.786743 587.692078 522.12677 587.692078 519.027405 C 587.692078 508.622498 592.33844 497.777527 601.636414 486.265747 C 597.208801 488.479553 579.941162 498.44165 581.712219 478.517456 C 581.933594 474.31131 573.080139 487.37265 567.988403 500.655457 L 556.032959 530.321228 L 537.661011 530.321228 L 543.416077 517.258972 C 541.866394 518.58728 539.874817 519.915527 537.661011 521.686523 C 530.355469 527.221069 524.374817 529.875854 519.725769 529.875854 C 512.863037 529.875854 509.322662 525.448303 509.322662 516.593079 C 499.360596 525.669678 490.284851 530.321228 482.53653 530.321228 L 480.763763 530.321228 Z M 494.491943 519.693237 C 504.232635 519.693237 514.637512 507.516479 525.485107 483.386078 C 530.355469 473.423981 532.788086 467.005798 532.788086 464.127747 C 532.788086 463.685089 532.346191 463.46106 531.460693 463.682373 C 522.60553 465.4534 513.972534 471.876038 505.781433 482.945038 C 496.483521 496.449219 491.613129 507.296021 491.391754 515.265686 C 491.391754 517.922241 492.499481 519.471924 494.491943 519.693237 Z M 611.823364 519.693237 C 621.564087 519.693237 631.968933 507.516479 642.816528 483.386078 C 647.686951 473.423981 650.119507 467.005798 650.119507 464.127747 C 650.119507 463.685089 649.677612 463.46106 648.792114 463.682373 C 639.93689 465.4534 631.303955 471.876038 623.112854 482.945038 C 613.814941 496.449219 608.94458 507.296021 608.723145 515.265686 C 608.723145 517.922241 609.830933 519.471924 611.823364 519.693237 Z M 786.26825 492.907166 C 795.566162 492.685822 804.423096 486.485443 812.392822 474.530884 C 815.049377 470.767395 816.375061 467.227112 816.375061 464.127747 C 816.375061 462.35675 815.491211 461.250793 813.720215 460.586548 C 805.529114 461.029297 796.451721 471.876038 786.26825 492.907166 Z M 884.341309 492.907166 C 893.639282 492.685822 902.491882 486.485443 910.461548 474.530884 C 913.118103 470.767395 914.44812 467.227112 914.44812 464.127747 C 914.44812 462.35675 913.564392 461.250793 911.793274 460.586548 C 903.602295 461.029297 894.52478 471.876038 884.341309 492.907166 Z"/>
        <path id="corona" fill="#0064ff" stroke="none" d="M 502.596222 353.067078 C 481.710876 324.700409 469.242218 289.474121 469.242218 251.444153 C 469.242218 156.680756 545.927307 80 640.690735 80 C 735.454102 80 812.135681 156.681152 811.512207 251.132813 C 811.512207 289.162781 799.043457 324.389099 778.158203 352.755768 C 771.923706 349.950287 767.871948 346.211243 764.442993 341.5354 C 740.128723 311.29837 722.671448 291.968353 718.61908 287.604309 C 709.890808 278.252625 706.149109 277.629059 699.602905 274.51178 C 698.356079 273.888336 697.735779 273.268127 697.112366 272.02124 L 663.758362 213.727386 C 661.576294 208.739777 657.83606 204.685974 653.471924 201.568787 L 645.364746 195.960754 C 643.806152 194.713898 641.311035 194.713898 639.752441 195.960754 L 632.894836 200.946136 C 632.271362 201.56958 631.649902 201.883606 631.338257 202.50705 L 615.750854 224.325073 L 608.27063 230.248718 L 555.900391 296.956757 L 550.915039 299.140289 C 549.979858 299.452087 549.043579 300.073029 548.420166 301.008179 L 516.622742 341.84671 C 513.8172 345.275696 509.765839 349.94989 502.596222 353.067078 Z M 762.25946 353.067078 C 745.73822 353.067078 729.220581 352.444855 722.986145 352.133148 L 716.124207 340.597137 C 712.383606 333.739227 698.046326 317.218231 698.046326 317.218231 C 696.487671 315.347839 694.304932 317.219299 695.240112 319.713074 L 702.720337 339.974487 C 705.214111 346.208954 703.971069 349.325348 703.036011 350.572235 C 685.267761 348.701843 667.187134 344.648987 667.187134 344.33725 L 668.743713 352.755768 L 638.818481 352.755768 C 638.195068 350.261932 637.884521 347.769318 637.884521 345.275513 C 637.884521 330.936249 650.977112 304.125671 650.977112 304.125671 L 646.610046 302.569092 C 640.999084 300.075317 634.4552 298.828979 628.220764 298.828979 L 611.699402 298.828979 L 629.466064 257.679108 C 630.712952 254.873596 628.531433 251.755463 625.725952 251.755463 L 645.053467 207.181091 L 649.104858 209.987274 C 651.9104 212.169373 654.71521 214.972504 656.273804 218.401428 L 656.589417 218.712769 L 697.112366 290.099182 C 697.424133 290.722626 698.357605 290.411285 698.357605 289.787842 L 698.357605 284.486847 C 698.981079 284.798492 699.606384 285.113403 700.229858 285.42511 C 704.593994 287.295441 707.084473 288.227478 712.695435 294.461914 C 712.695435 294.461914 730.465149 313.476685 757.896729 347.766083 C 759.143616 349.636322 760.700867 351.508484 762.25946 353.067078 Z M 571.876953 341.812134 C 570.513611 341.77771 567.511475 338.982666 569.615601 335.300446 L 580.213257 317.529541 C 580.525024 316.594452 579.903625 315.350342 578.656677 315.350342 L 590.188354 296.334137 C 591.435303 293.840302 599.232483 280.748474 603.596558 276.072662 L 613.256042 266.408905 C 613.879456 265.785461 614.50592 266.719421 614.194275 267.342865 L 603.280884 290.099182 C 598.605103 299.139008 601.411011 302.256958 602.969604 302.880402 C 603.593018 303.192139 604.219177 303.813934 604.219177 304.125671 L 598.606873 316.906921 C 598.606873 316.906921 588.942993 315.039093 572.421753 341.5354 C 572.324341 341.730255 572.129395 341.818512 571.876953 341.812134 Z M 509.142517 310.360626 L 512.882629 299.140289 L 525.041199 299.140289 L 515.377441 292.282715 L 519.117554 281.058044 L 509.453827 287.915649 L 499.79007 281.058044 L 503.530182 292.282715 L 493.866425 299.140289 L 505.402405 299.140289 L 509.142517 310.360626 Z M 772.234558 310.360626 L 775.979004 299.140289 L 788.133301 299.140289 L 778.469543 292.282715 L 782.209656 281.058044 L 772.545898 287.915649 L 762.886414 281.058044 L 766.626526 292.282715 L 756.962769 299.140289 L 768.494446 299.140289 L 772.234558 310.360626 Z M 499.47876 221.830231 L 509.142517 214.972656 L 518.806274 221.830231 L 515.066162 210.609894 L 524.1073 203.752319 L 512.571289 203.752319 L 508.831207 192.531982 L 505.091095 203.752319 L 493.555115 203.752319 L 503.218872 210.609894 L 499.47876 221.830231 Z M 762.570801 221.830231 L 772.234558 214.972656 L 781.898315 221.830231 L 778.158203 210.609894 L 787.82196 203.752319 L 776.290283 203.752319 L 772.545898 192.531982 L 768.805786 203.752319 L 756.651489 203.752319 L 766.315247 210.609894 L 762.570801 221.830231 Z M 559.329163 155.744843 L 563.069275 144.524506 L 575.227905 144.524506 L 565.564148 137.666901 L 569.30426 126.446594 L 559.640503 133.304169 L 549.976746 126.446594 L 553.716858 137.666901 L 544.057434 144.524506 L 555.58905 144.524506 L 559.329163 155.744843 Z M 722.047852 155.744843 L 726.099304 144.524506 L 737.946594 144.524506 L 728.282837 137.666901 L 732.022949 126.446594 L 722.359192 133.304169 L 712.695435 126.446594 L 716.43988 137.666901 L 706.776123 144.524506 L 718.307739 144.524506 L 722.047852 155.744843 Z M 631.026978 126.446594 L 640.690735 119.588989 L 650.354492 126.446594 L 646.610046 115.221924 L 655.651184 108.364319 L 644.119507 108.364319 L 640.379395 97.143982 L 636.634949 108.364319 L 625.103333 108.364319 L 634.76709 115.221924 L 631.026978 126.446594 Z"/>
    </g>
</svg>
